mariagoretti (2002) [DivX ita mpeg] [Tntvillage]





MARIA GORETTI





 Visit this link: http://imc.unilibro.it/images/articles/lrg/48/img_212848_lrg.jpg





Scheda del film:



Titolo: Maria Goretti

Anno di produzione: 2002.

Genere: biografico.

Durata: 98'

Regia: Giulio BASE.

Sceneggiatura: Francesco CONTALDO.

Fotografia: Fabrizio LUCCI.

Cast: Martina PINTO;  Fabrizio BUCCI; Massimo BONETTI; Luisa RANIERI; Flavio INSINNA; Claudia KOLL; Marco MESSERI; Luca BIAGINI; Manrico GIAMMAROTA; Giulio BASE; Rita DEL PIANO; Paolo FOSSO.

Produttore: Luca BERNABEI.

Produzione: Lux Vide, RAI Fiction.

Montaggio: Roberto SICILIANO. 

Costumi: Paola MARCHESIN.





Trama:



Il film inizia con Maria Goretti che è stata appena accoltellata da Alessandro Serenelli. Lei viene condotta in ospedale e lotta tra la vita e la morte; Lui, viene salvato dal linciaggio dai carabinieri che l'arrestano. A quel punto il film prende il connotato biografico col racconto delle vicende della vita di questa piccola santa. 



Film biografico prodotto dalla RAI con un cast degno di nota tra cui Flavio Insinna nei panni di Padre Basilio, e Claudia Koll nei panni della contessa Mazzoleni. 



Di questo film esiste una pagina anche nella  Visit this link: http://it.wikipedia.org/wiki/Maria_Goretti_%28film_televisivo%29





File Info:



General

Complete name                    : MARIAGORETTI - Italiano - xvid mp3.avi

Format                           : AVI

Format/Info                      : Audio Video Interleave

File size                        : 691 MiB

Duration                         : 1h 37mn

Overall bit rate                 : 987 Kbps

Writing application              : ogmrip-0.13.1



Video

ID                               : 0

Format                           : MPEG-4 Visual

Format profile                   : AdvancedSimple@L5

Format settings, BVOP            : Yes

Format settings, QPel            : No

Format settings, GMC             : No warppoints

Format settings, Matrix          : Default (MPEG)

Codec ID                         : DX50

Codec ID/Hint                    : DivX 5

Duration                         : 1h 37mn

Bit rate                         : 830 Kbps

Width                            : 480 pixels

Height                           : 288 pixels

Display aspect ratio             : 1.638

Frame rate                       : 25.000 fps

Resolution                       : 24 bits

Colorimetry                      : 4:2:0

Scan type                        : Progressive

Bits/(Pixel*Frame)               : 0.240

Stream size                      : 581 MiB (84%)

Writing library                  : XviD 1.2.1 (UTC 2008-12-04)



Audio

ID                               : 1

Format                           : MPEG Audio

Format version                   : Version 1

Format profile                   : Layer 3

Codec ID                         : 55

Codec ID/Hint                    : MP3

Duration                         : 1h 37mn

Bit rate mode                    : Variable

Bit rate                         : 144 Kbps

Minimum bit rate                 : 32.0 Kbps

Channel(s)                       : 2 channels

Sampling rate                    : 48.0 KHz

Resolution                       : 16 bits

Stream size                      : 101 MiB (15%)

Alignment                        : Aligned on interleaves

Interleave, duration             : 24 ms (0.60 video frame)

Writing library                  : LAME3.98r

Encoding settings                : -m j -V 4 -q 0 -lowpass 17.5 --vbr-new -b 32






Visit http://www.tntvillage.scambioetico.org/